<svg width="208" height="63" viewBox="0 0 208 63" fill="none" xmlns="http://www.w3.org/2000/svg">
<rect width="208" height="63" rx="8" fill="#5700FF"/>
<path d="M28.428 38L24.09 25.04H25.755L29.526 36.299L33.333 25.04H34.998L30.66 38H28.428ZM36.1802 26.561V24.905H37.7822V26.561H36.1802ZM36.1802 38V28.28H37.7822V38H36.1802ZM44.6947 38.27C43.7407 38.27 42.9067 38.06 42.1927 37.64C41.4847 37.214 40.9327 36.623 40.5367 35.867C40.1407 35.105 39.9427 34.217 39.9427 33.203C39.9427 32.141 40.1377 31.223 40.5277 30.449C40.9177 29.669 41.4607 29.069 42.1567 28.649C42.8587 28.223 43.6807 28.01 44.6227 28.01C45.6007 28.01 46.4317 28.235 47.1157 28.685C47.8057 29.135 48.3217 29.777 48.6637 30.611C49.0117 31.445 49.1617 32.438 49.1137 33.59H47.4937V33.014C47.4757 31.82 47.2327 30.929 46.7647 30.341C46.2967 29.747 45.6007 29.45 44.6767 29.45C43.6867 29.45 42.9337 29.768 42.4177 30.404C41.9017 31.04 41.6437 31.952 41.6437 33.14C41.6437 34.286 41.9017 35.174 42.4177 35.804C42.9337 36.434 43.6687 36.749 44.6227 36.749C45.2647 36.749 45.8227 36.602 46.2967 36.308C46.7707 36.014 47.1427 35.591 47.4127 35.039L48.9517 35.57C48.5737 36.428 48.0037 37.094 47.2417 37.568C46.4857 38.036 45.6367 38.27 44.6947 38.27ZM41.1037 33.59V32.303H48.2857V33.59H41.1037ZM52.8359 38L49.8659 28.271L51.4589 28.28L53.6279 35.39L55.8149 28.28H57.2279L59.4059 35.39L61.5839 28.28H63.1679L60.1979 38H58.8659L56.5169 30.611L54.1679 38H52.8359ZM67.4967 38L71.8347 25.04H74.0667L78.4047 38H76.7397L72.6807 25.976H73.1847L69.1617 38H67.4967ZM69.5847 34.967V33.464H76.3167V34.967H69.5847ZM80.1959 38V24.77H81.7979V38H80.1959ZM84.6783 38V24.77H86.2803V38H84.6783ZM92.5842 38V25.04H97.7052C97.8312 25.04 97.9812 25.046 98.1552 25.058C98.3292 25.064 98.4972 25.082 98.6592 25.112C99.3612 25.22 99.9492 25.46 100.423 25.832C100.903 26.204 101.263 26.675 101.503 27.245C101.743 27.809 101.863 28.436 101.863 29.126C101.863 29.81 101.74 30.437 101.494 31.007C101.254 31.571 100.894 32.042 100.414 32.42C99.9402 32.792 99.3552 33.032 98.6592 33.14C98.4972 33.164 98.3292 33.182 98.1552 33.194C97.9812 33.206 97.8312 33.212 97.7052 33.212H94.1862V38H92.5842ZM94.1862 31.691H97.6512C97.7652 31.691 97.8942 31.685 98.0382 31.673C98.1882 31.661 98.3292 31.64 98.4612 31.61C98.8752 31.514 99.2112 31.34 99.4692 31.088C99.7332 30.83 99.9252 30.53 100.045 30.188C100.165 29.84 100.225 29.486 100.225 29.126C100.225 28.766 100.165 28.415 100.045 28.073C99.9252 27.725 99.7332 27.422 99.4692 27.164C99.2112 26.906 98.8752 26.732 98.4612 26.642C98.3292 26.606 98.1882 26.585 98.0382 26.579C97.8942 26.567 97.7652 26.561 97.6512 26.561H94.1862V31.691ZM103.658 38V28.28H105.089V30.629L104.855 30.323C104.969 30.023 105.116 29.747 105.296 29.495C105.482 29.243 105.689 29.036 105.917 28.874C106.169 28.67 106.454 28.514 106.772 28.406C107.09 28.298 107.414 28.235 107.744 28.217C108.074 28.193 108.383 28.214 108.671 28.28V29.783C108.335 29.693 107.966 29.669 107.564 29.711C107.162 29.753 106.79 29.9 106.448 30.152C106.136 30.374 105.893 30.644 105.719 30.962C105.551 31.28 105.434 31.625 105.368 31.997C105.302 32.363 105.269 32.738 105.269 33.122V38H103.658ZM114.338 38.27C113.372 38.27 112.538 38.051 111.836 37.613C111.14 37.175 110.603 36.569 110.225 35.795C109.847 35.021 109.658 34.133 109.658 33.131C109.658 32.111 109.85 31.217 110.234 30.449C110.618 29.681 111.161 29.084 111.863 28.658C112.565 28.226 113.39 28.01 114.338 28.01C115.31 28.01 116.147 28.229 116.849 28.667C117.551 29.099 118.088 29.702 118.46 30.476C118.838 31.244 119.027 32.129 119.027 33.131C119.027 34.145 118.838 35.039 118.46 35.813C118.082 36.581 117.542 37.184 116.84 37.622C116.138 38.054 115.304 38.27 114.338 38.27ZM114.338 36.749C115.346 36.749 116.096 36.413 116.588 35.741C117.08 35.069 117.326 34.199 117.326 33.131C117.326 32.033 117.077 31.16 116.579 30.512C116.081 29.858 115.334 29.531 114.338 29.531C113.66 29.531 113.102 29.684 112.664 29.99C112.226 30.296 111.899 30.719 111.683 31.259C111.467 31.799 111.359 32.423 111.359 33.131C111.359 34.223 111.611 35.099 112.115 35.759C112.619 36.419 113.36 36.749 114.338 36.749ZM119.568 42.32V40.79H120.09C120.558 40.79 120.915 40.673 121.161 40.439C121.407 40.205 121.53 39.833 121.53 39.323V28.28H123.132V39.872C123.132 40.67 122.925 41.276 122.511 41.69C122.103 42.11 121.497 42.32 120.693 42.32H119.568ZM121.53 26.561V24.905H123.132V26.561H121.53ZM129.949 38.27C128.995 38.27 128.161 38.06 127.447 37.64C126.739 37.214 126.187 36.623 125.791 35.867C125.395 35.105 125.197 34.217 125.197 33.203C125.197 32.141 125.392 31.223 125.782 30.449C126.172 29.669 126.715 29.069 127.411 28.649C128.113 28.223 128.935 28.01 129.877 28.01C130.855 28.01 131.686 28.235 132.37 28.685C133.06 29.135 133.576 29.777 133.918 30.611C134.266 31.445 134.416 32.438 134.368 33.59H132.748V33.014C132.73 31.82 132.487 30.929 132.019 30.341C131.551 29.747 130.855 29.45 129.931 29.45C128.941 29.45 128.188 29.768 127.672 30.404C127.156 31.04 126.898 31.952 126.898 33.14C126.898 34.286 127.156 35.174 127.672 35.804C128.188 36.434 128.923 36.749 129.877 36.749C130.519 36.749 131.077 36.602 131.551 36.308C132.025 36.014 132.397 35.591 132.667 35.039L134.206 35.57C133.828 36.428 133.258 37.094 132.496 37.568C131.74 38.036 130.891 38.27 129.949 38.27ZM126.358 33.59V32.303H133.54V33.59H126.358ZM140.466 38.27C139.482 38.27 138.645 38.051 137.955 37.613C137.271 37.169 136.749 36.56 136.389 35.786C136.029 35.012 135.843 34.13 135.831 33.14C135.843 32.126 136.032 31.235 136.398 30.467C136.77 29.693 137.301 29.09 137.991 28.658C138.681 28.226 139.512 28.01 140.484 28.01C141.51 28.01 142.392 28.262 143.13 28.766C143.874 29.27 144.372 29.96 144.624 30.836L143.04 31.313C142.836 30.749 142.503 30.311 142.041 29.999C141.585 29.687 141.06 29.531 140.466 29.531C139.8 29.531 139.251 29.687 138.819 29.999C138.387 30.305 138.066 30.731 137.856 31.277C137.646 31.817 137.538 32.438 137.532 33.14C137.544 34.22 137.793 35.093 138.279 35.759C138.771 36.419 139.5 36.749 140.466 36.749C141.102 36.749 141.63 36.605 142.05 36.317C142.47 36.023 142.788 35.6 143.004 35.048L144.624 35.471C144.288 36.377 143.763 37.07 143.049 37.55C142.335 38.03 141.474 38.27 140.466 38.27ZM151.888 38C151.312 38.114 150.742 38.159 150.178 38.135C149.62 38.117 149.122 38.006 148.684 37.802C148.246 37.592 147.913 37.268 147.685 36.83C147.493 36.446 147.388 36.059 147.37 35.669C147.358 35.273 147.352 34.826 147.352 34.328V25.58H148.954V34.256C148.954 34.652 148.957 34.991 148.963 35.273C148.975 35.555 149.038 35.798 149.152 36.002C149.368 36.386 149.71 36.611 150.178 36.677C150.652 36.743 151.222 36.725 151.888 36.623V38ZM145.381 29.603V28.28H151.888V29.603H145.381ZM157.534 38.261C156.376 38.261 155.425 38.009 154.681 37.505C153.943 36.995 153.49 36.284 153.322 35.372L154.96 35.111C155.092 35.639 155.395 36.059 155.869 36.371C156.343 36.677 156.931 36.83 157.633 36.83C158.299 36.83 158.821 36.692 159.199 36.416C159.577 36.14 159.766 35.765 159.766 35.291C159.766 35.015 159.703 34.793 159.577 34.625C159.451 34.451 159.19 34.289 158.794 34.139C158.404 33.989 157.813 33.809 157.021 33.599C156.163 33.371 155.488 33.134 154.996 32.888C154.504 32.642 154.153 32.357 153.943 32.033C153.733 31.709 153.628 31.316 153.628 30.854C153.628 30.284 153.784 29.786 154.096 29.36C154.408 28.928 154.843 28.595 155.401 28.361C155.965 28.127 156.619 28.01 157.363 28.01C158.101 28.01 158.761 28.127 159.343 28.361C159.925 28.595 160.393 28.928 160.747 29.36C161.107 29.786 161.32 30.284 161.386 30.854L159.748 31.151C159.67 30.629 159.418 30.218 158.992 29.918C158.572 29.618 158.029 29.459 157.363 29.441C156.733 29.417 156.22 29.528 155.824 29.774C155.434 30.02 155.239 30.353 155.239 30.773C155.239 31.007 155.311 31.208 155.455 31.376C155.605 31.544 155.878 31.703 156.274 31.853C156.676 32.003 157.258 32.174 158.02 32.366C158.878 32.582 159.553 32.819 160.045 33.077C160.543 33.329 160.897 33.629 161.107 33.977C161.317 34.319 161.422 34.742 161.422 35.246C161.422 36.182 161.077 36.92 160.387 37.46C159.697 37.994 158.746 38.261 157.534 38.261ZM168.27 32.987V31.664H179.007L176.235 28.892L177.054 28.073L181.311 32.33L177.054 36.587L176.235 35.768L179.016 32.987H168.27Z" fill="#FDFDFC"/>
</svg>
