<svg width="52" height="52" viewBox="0 0 52 52" fill="none" xmlns="http://www.w3.org/2000/svg">
<g filter="url(#filter0_i_136_2847)">
<rect width="52" height="52" rx="6" fill="#5700FF"/>
<path fill-rule="evenodd" clip-rule="evenodd" d="M22.5 17.25C22.8907 17.25 23.234 17.509 23.3413 17.8846L24.2901 21.2052C24.7053 22.6586 25.8414 23.7947 27.2948 24.2099L30.6154 25.1587C30.991 25.266 31.25 25.6093 31.25 26C31.25 26.3907 30.991 26.734 30.6154 26.8413L27.2948 27.7901C25.8414 28.2053 24.7053 29.3414 24.2901 30.7948L23.3413 34.1154C23.234 34.491 22.8907 34.75 22.5 34.75C22.1093 34.75 21.766 34.491 21.6587 34.1154L20.7099 30.7948C20.2947 29.3414 19.1586 28.2053 17.7052 27.7901L14.3846 26.8413C14.009 26.734 13.75 26.3907 13.75 26C13.75 25.6093 14.009 25.266 14.3846 25.1587L17.7052 24.2099C19.1586 23.7947 20.2947 22.6586 20.7099 21.2052L21.6587 17.8846C21.766 17.509 22.1093 17.25 22.5 17.25Z" fill="#F5F3F0"/>
<path fill-rule="evenodd" clip-rule="evenodd" d="M33 13.75C33.4015 13.75 33.7515 14.0233 33.8489 14.4128L34.1509 15.6208C34.4252 16.7181 35.2819 17.5748 36.3792 17.8491L37.5872 18.1511C37.9767 18.2485 38.25 18.5985 38.25 19C38.25 19.4015 37.9767 19.7515 37.5872 19.8489L36.3792 20.1509C35.2819 20.4252 34.4252 21.2819 34.1509 22.3792L33.8489 23.5872C33.7515 23.9767 33.4015 24.25 33 24.25C32.5985 24.25 32.2485 23.9767 32.1511 23.5872L31.8491 22.3792C31.5748 21.2819 30.7181 20.4252 29.6208 20.1509L28.4128 19.8489C28.0233 19.7515 27.75 19.4015 27.75 19C27.75 18.5985 28.0233 18.2485 28.4128 18.1511L29.6208 17.8491C30.7181 17.5748 31.5748 16.7181 31.8491 15.6208L32.1511 14.4128C32.2485 14.0233 32.5985 13.75 33 13.75Z" fill="#F5F3F0"/>
<path fill-rule="evenodd" clip-rule="evenodd" d="M31.25 29.5C31.6266 29.5 31.961 29.741 32.0801 30.0983L32.5401 31.4782C32.7142 32.0007 33.1243 32.4108 33.6468 32.5849L35.0267 33.0449C35.384 33.164 35.625 33.4984 35.625 33.875C35.625 34.2516 35.384 34.586 35.0267 34.7051L33.6468 35.1651C33.1243 35.3392 32.7142 35.7493 32.5401 36.2718L32.0801 37.6517C31.961 38.009 31.6266 38.25 31.25 38.25C30.8734 38.25 30.539 38.009 30.4199 37.6517L29.9599 36.2718C29.7858 35.7493 29.3757 35.3392 28.8532 35.1651L27.4733 34.7051C27.116 34.586 26.875 34.2516 26.875 33.875C26.875 33.4984 27.116 33.164 27.4733 33.0449L28.8532 32.5849C29.3757 32.4108 29.7858 32.0007 29.9599 31.4782L30.4199 30.0983C30.539 29.741 30.8734 29.5 31.25 29.5Z" fill="#F5F3F0"/>
</g>
<defs>
<filter id="filter0_i_136_2847" x="0" y="0" width="52" height="52" filterUnits="userSpaceOnUse" color-interpolation-filters="sRGB">
<feFlood flood-opacity="0" result="BackgroundImageFix"/>
<feBlend mode="normal" in="SourceGraphic" in2="BackgroundImageFix" result="shape"/>
<feColorMatrix in="SourceAlpha" type="matrix" values="0 0 0 0 0 0 0 0 0 0 0 0 0 0 0 0 0 0 127 0" result="hardAlpha"/>
<feMorphology radius="4" operator="erode" in="SourceAlpha" result="effect1_innerShadow_136_2847"/>
<feOffset/>
<feGaussianBlur stdDeviation="7"/>
<feComposite in2="hardAlpha" operator="arithmetic" k2="-1" k3="1"/>
<feColorMatrix type="matrix" values="0 0 0 0 1 0 0 0 0 1 0 0 0 0 1 0 0 0 0.5 0"/>
<feBlend mode="normal" in2="shape" result="effect1_innerShadow_136_2847"/>
</filter>
</defs>
</svg>
